<svg xmlns="http://www.w3.org/2000/svg" xmlns:xlink="http://www.w3.org/1999/xlink" x="0px" y="0px" viewBox="0 0 58 56" style="enable-background:new 0 0 58 56;" xml:space="preserve" width="512" height="512"><g id="_x32_8-Bus">	<path style="fill:#28384C;" d="M9,49v4c0,1.657,1.343,3,3,3h4c1.657,0,3-1.343,3-3v-4H9z"></path>	<path style="fill:#28384C;" d="M39,49v4c0,1.657,1.343,3,3,3h4c1.657,0,3-1.343,3-3v-4H39z"></path>	<path style="fill:#AFB6BB;" d="M6,25H3.014C1.349,25,0,23.651,0,21.986v-8.972C0,11.349,1.349,10,3.014,10H6V25z"></path>	<path style="fill:#AFB6BB;" d="M51,25h3.986C56.651,25,58,23.651,58,21.986v-8.972C58,11.349,56.651,10,54.986,10H51V25z"></path>	<path style="fill:#C6E2F7;" d="M53,29H5V3.882C5,3.395,5.395,3,5.882,3h46.235C52.605,3,53,3.395,53,3.882V29z"></path>	<path style="fill:#EBBA16;" d="M53,4H5v0c0-2.209,1.791-4,4-4h40C51.209,0,53,1.791,53,4L53,4z"></path>	<path style="fill:#28384C;" d="M18,28.77c-0.235,0-0.47-0.082-0.66-0.25c-0.415-0.365-0.455-0.997-0.09-1.411l13-14.769   c0.365-0.416,0.997-0.456,1.411-0.09c0.415,0.365,0.455,0.997,0.09,1.411l-13,14.769C18.553,28.655,18.277,28.77,18,28.77z"></path>	<path style="fill:#28384C;" d="M26,19.681c-0.552,0-1-0.448-1-1v-4.68c0-0.552,0.448-1,1-1s1,0.448,1,1v4.68   C27,19.233,26.552,19.681,26,19.681z"></path>	<path style="fill:#28384C;" d="M30,28.77c-0.235,0-0.47-0.082-0.66-0.25c-0.415-0.365-0.455-0.997-0.09-1.411l13-14.769   c0.365-0.416,0.997-0.456,1.411-0.09c0.415,0.365,0.455,0.997,0.09,1.411l-13,14.769C30.553,28.655,30.277,28.77,30,28.77z"></path>	<path style="fill:#28384C;" d="M38,19.681c-0.552,0-1-0.448-1-1v-4.68c0-0.552,0.448-1,1-1s1,0.448,1,1v4.68   C39,19.233,38.552,19.681,38,19.681z"></path>	<path style="fill:#EBBA16;" d="M51,50H7c-1.105,0-2-0.895-2-2V28h48v20C53,49.105,52.105,50,51,50z"></path>	<rect x="17" y="32" style="fill:#E7ECED;" width="24" height="18"></rect>	<path style="fill:#F2ECBF;" d="M11,44H5V34h6c1.105,0,2,0.895,2,2v6C13,43.105,12.105,44,11,44z"></path>	<path style="fill:#F2ECBF;" d="M53,44h-6c-1.105,0-2-0.895-2-2v-6c0-1.105,0.895-2,2-2h6V44z"></path>	<path style="fill:#AFB6BB;" d="M33,38h-8c-0.552,0-1-0.448-1-1s0.448-1,1-1h8c0.552,0,1,0.448,1,1S33.552,38,33,38z"></path>	<path style="fill:#AFB6BB;" d="M37,42H21c-0.552,0-1-0.448-1-1s0.448-1,1-1h16c0.552,0,1,0.448,1,1S37.552,42,37,42z"></path>	<path style="fill:#AFB6BB;" d="M33,46h-8c-0.552,0-1-0.448-1-1s0.448-1,1-1h8c0.552,0,1,0.448,1,1S33.552,46,33,46z"></path></g></svg>