<svg xmlns="http://www.w3.org/2000/svg" viewBox="0 0 512 512"><g id="Layer_1" data-name="Layer 1"><path d="m486.405 55.853v71.661a18.3 18.3 0 0 1 -18.3 18.3h-68.549l-.056-90.622c0-25.8 20.587-43.471 44.221-43.471 23.811.397 42.684 20.319 42.684 44.132z" fill="#bfbfbf"></path><path d="m25.6 55.192a43.477 43.477 0 0 1 43.472-43.478h373.908a43.478 43.478 0 0 0 -43.48 43.478l.054 424.643-37.4 20.451-37.4-20.451-37.4 20.451-37.4-20.451-37.4 20.451-37.4-20.451-37.391 20.451-37.39-20.451-37.4 20.451-37.373-20.451z" fill="#f5f5f5"></path><path d="m62.99 500.286-37.4-20.45v-424.644a43.477 43.477 0 0 1 43.482-43.478h28.855a43.477 43.477 0 0 0 -43.477 43.478v424.644z" fill="#e6e6e6"></path><path d="m298.107 105.019v8.966h-168.893v-8.966c0-4.581 3.617-7.683 8.051-8.834 35.205-9.135 119.305-7.614 152.791 0 4.467 1.015 8.051 4.253 8.051 8.834z" fill="#fdbf00"></path><path d="m157.221 250.807h-28.007v-136.822h168.893v136.822z" fill="#ff5959"></path><path d="m129.214 213.121v-99.136h168.893v99.136z" fill="#6cf"></path><path d="m169.571 273.277v17.223a5 5 0 0 1 -5 5h-16.643a5 5 0 0 1 -5-5v-17.223zm85.25.4v16.823a5 5 0 0 0 5 5h16.643a5 5 0 0 0 5-5v-16.661z" fill="#393939"></path><path d="m129.214 267.6v-16.793h168.893v16.793a6.609 6.609 0 0 1 -6.609 6.609h-155.675a6.609 6.609 0 0 1 -6.609-6.609z" fill="#fdbf00"></path><path d="m346.311 331.9a7 7 0 0 1 -7 7h-252.011a7 7 0 0 1 0-14h252.011a7 7 0 0 1 7 7zm-7 26.125h-252.011a7 7 0 0 0 0 14h252.011a7 7 0 0 0 0-14zm0 33.125h-252.011a7 7 0 0 0 0 14h252.011a7 7 0 0 0 0-14zm0 33.126h-252.011a7 7 0 0 0 0 14h252.011a7 7 0 0 0 0-14z" fill="#393939"></path><g fill="#f5f5f5"><path d="m169.3 233.357a7 7 0 0 1 -7 7h-11.09a7 7 0 0 1 0-14h11.09a7 7 0 0 1 7 7z"></path><path d="m278.688 233.357a7 7 0 0 1 -7 7h-11.088a7 7 0 0 1 0-14h11.09a7 7 0 0 1 6.998 7z"></path></g></g></svg>