<svg xmlns="http://www.w3.org/2000/svg" clip-rule="evenodd" fill-rule="evenodd" height="512" viewBox="0 0 1.70666 1.70666" width="512"><g id="Layer_x0020_1"><g id="_659370184"><path id="_659372392" d="m.103366.603303c-.0107913 0-.0195394-.00874803-.0195394-.0195394v-.100189c0-.0660157.0537087-.119724.119724-.119724l.0881693.00000394c.0107913 0 .0195394.00874803.0195394.0195394 0 .0107913-.00874803.0195394-.0195394.0195394h-.0881693c-.0444685 0-.0806457.0361772-.0806457.0806457v.100185c0 .0107913-.00874803.0195394-.0195394.0195394z" fill="#ffd998"></path><path id="_659372536" d="m1.60329.603303c-.0107874 0-.0195394-.00874803-.0195394-.0195394v-.100189c0-.0444646-.0361772-.0806417-.0806457-.0806417h-.0881693c-.0107874 0-.0195394-.00874803-.0195394-.0195394 0-.0107913.00875197-.0195394.0195394-.0195394h.0881693c.0660157 0 .119728.0537047.119728.119724v.100185c0 .0107913-.00874803.0195394-.0195433.0195394z" fill="#ffd998"></path><path id="_659372296" d="m1.41493 1.00188h-.00009449c-.00723228 0-.0138701-.00399606-.0172598-.0103819-.0360906-.0679646-.105949-.110189-.182315-.110189h-.724583c-.0759331 0-.145606.041874-.181835.109283-.00424016.00788976-.0133031.0118898-.0219803.00970079-.00868504-.00218504-.0147756-.00999213-.0147756-.0189488 0-.119504.00002362-.213953.00004724-.308421.00001968-.0943622.00004331-.188748.00004331-.308142-.00044095-.00927559-.00169685-.0849921.0680787-.16085.0936654-.101831.266197-.155157.512803-.158496.00017717-.00000394.00035433-.00000394.00052756 0 .24661.00333858.419142.0566614.512807.158496.0697756.0758583.0685197.151575.0680748.160854v.617555c.00000394.0107913-.00874409.0195394-.0195394.0195394z" fill="#ffbe4f"></path><path id="_659372464" d="m1.28257.89163c-.0019685 0-.00394488-.00029528-.00587008-.00090158-.0198425-.00624409-.0405118-.00941339-.0614331-.00941339h-.724583c-.0206772 0-.041126.00309843-.0607835.00920866-.00592913.00184252-.0123858.00075197-.0173858-.0029252-.005-.0036811-.00795276-.00952362-.00795276-.0157362l-.00000394-.461421c0-.0107913.00875197-.0195433.0195433-.0195433h.858469c.0107913 0 .0195394.00875197.0195394.0195433v.461646c0 .00622047-.00296063.0120709-.00798031.0157559-.00339764.00249213-.00745276.0037874-.0115591.0037874z" fill="#46daff"></path><path id="_659372584" d="m.852969.881315c-.0107874 0-.0195394-.00875197-.0195394-.0195394v-.470878h.0390787v.470874c0 .0107913-.00874409.0195433-.0195394.0195433z" fill="#86e7ff"></path><path id="_659372944" d="m.475031 1.66123h-.0539213c-.0462362 0-.0838583-.037622-.0838583-.0838583v-.119406c0-.0107913.00875197-.0195433.0195433-.0195433h.183772c.0107874 0 .0195394.00875197.0195394.0195433v.118189c-.00000394.0469094-.0381654.0850748-.0850748.0850748z" fill="#393d48"></path><path id="_659372440" d="m.337252 1.50417v-.0462047c0-.0107913.00875197-.0195433.0195433-.0195433h.183772c.0107874 0 .0195394.00875197.0195394.0195433v.0462047h-.222854z" fill="#31343d"></path><path id="_659371912" d="m1.28362 1.66123h-.0539252c-.0462402 0-.0838583-.037622-.0838583-.0838583v-.119406c0-.0107913.00874803-.0195433.0195394-.0195433h.18378c.0107874 0 .0195394.00875197.0195394.0195433v.118189c0 .0469094-.0381654.0850748-.0850748.0850748z" fill="#393d48"></path><path id="_659371840" d="m1.14583 1.50417v-.0462047c0-.0107913.00874803-.0195433.0195394-.0195433h.18378c.0107874 0 .0195394.00875197.0195394.0195433v.0462047h-.222858z" fill="#31343d"></path><path id="_659371528" d="m1.02324.311555h-.339815c-.0107874 0-.0195394-.00875197-.0195394-.0195394v-.108449c0-.0107913.00875197-.0195433.0195394-.0195433h.339815c.0107913 0 .0195394.00875197.0195394.0195394v.108449c0 .0107953-.00874803.0195433-.0195394.0195433z" fill="#393d48"></path><path id="_659372128" d="m.557075.304551c-.036811 0-.0667598-.0299488-.0667598-.0667598s.0299488-.0667598.0667598-.0667598.0667598.0299488.0667598.0667598c0 .0368071-.0299488.0667598-.0667598.0667598z" fill="#393d48"></path><path id="_659371792" d="m1.14958.304551c-.036811 0-.0667598-.0299488-.0667598-.0667598s.0299488-.0667598.0667598-.0667598.0667598.0299488.0667598.0667598c0 .0368071-.0299488.0667598-.0667598.0667598z" fill="#393d48"></path><path id="_659371648" d="m.172323.846394h-.137913c-.018937 0-.0343465-.0154094-.0343465-.0343504v-.213469c0-.0189409.0154094-.0343504.0343465-.0343504h.137909c.018937 0 .0343465.0154055.0343465.0343504v.213469c.00000394.0189409-.0154055.0343504-.0343425.0343504z" fill="#ffbe4f"></path><path id="_659372152" d="m1.67225.846394h-.137909c-.018937 0-.0343465-.0154094-.0343465-.0343504v-.213469c0-.0189409.0154055-.0343504.0343465-.0343504h.137909c.018937 0 .0343465.0154055.0343465.0343504v.213469c0 .0189409-.0154055.0343504-.0343465.0343504z" fill="#ffbe4f"></path><g fill="#86e7ff"><path id="_659371600" d="m.529248.739811c-.00500394 0-.01-.00190945-.0138189-.00572441-.00762992-.00762992-.00762992-.0200039 0-.0276339l.183906-.183906c.00762992-.00762992.0200039-.00762992.0276339 0 .00762992.00762992.00762992.0200039 0 .0276339l-.183906.183906c-.00381102.00381496-.00881496.00572441-.013815.00572441z"></path><path id="_659372200" d="m.613425.765709c-.00500394 0-.01-.00190551-.0138189-.00572047-.00762992-.00762992-.00762992-.0200039 0-.0276339l.12563-.125634c.00762992-.00762992.0200039-.00762992.0276339 0 .00762992.00762992.00762992.0200039 0 .0276339l-.12563.125634c-.00381102.00381496-.00881102.00572047-.013815.00572047z"></path><path id="_659370832" d="m.967606.739811c-.00499606 0-.01-.00190945-.013815-.00572441-.00763386-.00762992-.00763386-.0200039 0-.0276339l.183906-.183906c.00762992-.00762992.0200079-.00762992.0276299 0 .00763386.00762992.00763386.0200039 0 .0276339l-.183906.183906c-.00381102.00381496-.00881496.00572441-.013815.00572441z"></path><path id="_659371192" d="m1.05178.765709c-.00499606 0-.01-.00190551-.013815-.00572047-.00763386-.00762992-.00763386-.0200039 0-.0276339l.12563-.125634c.00762992-.00762992.0200079-.00762992.0276299 0 .00763386.00762992.00763386.0200039 0 .0276339l-.12563.125634c-.00381102.00381496-.00881496.00572047-.013815.00572047z"></path></g><path id="_659370880" d="m1.60528 1.66123h-1.5039c-.0107913 0-.0195433-.00875197-.0195433-.0195433 0-.0107874.00875197-.0195394.0195433-.0195394h1.5039c.0107874 0 .0195394.00875197.0195394.0195394 0 .0107913-.00875197.0195433-.0195394.0195433z" fill="#56697d"></path><path id="_659371384" d="m1.44104 1.33287h-1.17613c-.0107874 0-.0195394-.00874803-.0195394-.0195394v-.22578c0-.135268.110047-.245315.245311-.245315h.724591c.135264 0 .245311.110047.245311.245315v.22578c0 .0107913-.00875197.0195394-.0195394.0195394z" fill="#ffd998"></path><g fill="#393d48"><path id="_659371048" d="m.245366 1.20728v-.119732c0-.0185551.00207874-.0366339.00600394-.0540236h.207843c.0107913 0 .0195394.00874803.0195394.0195394v.0673386c-.00000394.0479055-.0389724.086878-.086878.086878h-.146508z"></path><path id="_659371024" d="m1.45457 1.03352c.0039252.0173898.00600394.0354685.00600394.0540236v.119732h-.146508c-.0479094 0-.0868819-.0389724-.0868819-.086878v-.0673386c0-.0107913.00875197-.0195394.0195394-.0195394h.207846z"></path></g><path id="_659371072" d="m.245366 1.18061v-.0930669c0-.00924803.00051575-.018374.00151969-.0273583h.205201v.0602126c0 .033185-.0270276.0602126-.0602126.0602126h-.146508z" fill="#ffbe4f"></path><path id="_659370616" d="m1.45906 1.06019c.00100394.00898425.00151969.0181102.00151969.0273583v.0930669h-.146508c-.033189 0-.0602165-.0270236-.0602165-.0602126v-.0602126h.205205z" fill="#ffbe4f"></path><path id="_659370352" d="m1.06813 1.20728h-.430311c-.0085315 0-.0160787-.0055315-.0186378-.0136693l-.0630748-.200374c-.00187008-.00593701-.00079528-.0124094.00288189-.0174252.0036811-.00501969.00953543-.00798425.0157598-.00798425h.556449c.00622441 0 .0120748.00296457.0157559.00798425.0036811.00501575.00475197.0114843.00288583.0174252l-.0630669.200374c-.00256299.00812992-.0101102.0136693-.0186417.0136693z" fill="#393d48"></path><path id="_659370640" d="m.996878 1.07342h-.287811c-.0107913 0-.0195394-.00875197-.0195394-.0195394 0-.0107913.00874803-.0195433.0195394-.0195433h.287811c.0107874 0 .0195394.00875197.0195394.0195433 0 .0107874-.00874803.0195394-.0195394.0195394z" fill="#ffbe4f"></path><path id="_659370328" d="m.996878 1.14076h-.287811c-.0107913 0-.0195394-.00874803-.0195394-.0195394 0-.0107913.00874803-.0195394.0195394-.0195394h.287811c.0107874 0 .0195394.00874803.0195394.0195394 0 .0107913-.00874803.0195394-.0195394.0195394z" fill="#ffbe4f"></path><path id="_659370568" d="m1.47177 1.47751h-1.23759c-.0368346 0-.0667992-.0299646-.0667992-.0667953v-.0501339c0-.0368307.0299646-.0667953.0667992-.0667953h1.23759c.0368346 0 .0667953.0299606.0667953.0667953v.0501299c0 .0368346-.0299646.0667992-.0667953.0667992z" fill="#ffbe4f"></path></g></g></svg>