<svg xmlns="http://www.w3.org/2000/svg" xmlns:xlink="http://www.w3.org/1999/xlink" id="Layer_3" x="0px" y="0px" viewBox="0 0 64 64" style="enable-background:new 0 0 64 64;" xml:space="preserve" width="512" height="512"><g>	<path style="fill:#4D555B;" d="M42,56v5c0,0.552,0.448,1,1,1h6c0.552,0,1-0.448,1-1v-5"></path>	<path style="fill:#677179;" d="M47,61v-5h-5v5c0,0.552,0.448,1,1,1h3C46.552,62,47,61.552,47,61z"></path>	<path style="fill:#4D555B;" d="M14,56v5c0,0.552,0.448,1,1,1h6c0.552,0,1-0.448,1-1v-5"></path>	<path style="fill:#677179;" d="M19,61v-5h-5v5c0,0.552,0.448,1,1,1h3C18.552,62,19,61.552,19,61z"></path>	<polyline style="fill:#BB3524;" points="20,10 20,2 44,2 44,10  "></polyline>	<rect x="20" y="2" style="fill:#F94730;" width="21" height="8"></rect>	<rect x="58" y="22" style="fill:#BF851A;" width="4" height="6"></rect>	<rect x="58" y="22" style="fill:#FFB123;" width="2" height="6"></rect>	<rect x="2" y="22" style="fill:#BF851A;" width="4" height="6"></rect>	<rect x="2" y="22" style="fill:#FFB123;" width="2" height="6"></rect>	<path style="fill:#BF851A;" d="M50,56H14c-2.209,0-4-1.791-4-4V14c0-2.209,1.791-4,4-4h36c2.209,0,4,1.791,4,4v38   C54,54.209,52.209,56,50,56z"></path>	<path style="fill:#FFB123;" d="M51,52V14c0-2.209-1.791-4-4-4H14c-2.209,0-4,1.791-4,4v38c0,2.209,1.791,4,4,4h33   C49.209,56,51,54.209,51,52z"></path>	<rect x="32" y="16" style="fill:#90D4DE;" width="22" height="16"></rect>	<rect x="32" y="16" style="fill:#A6DDE5;" width="19" height="16"></rect>	<circle style="fill:#4D555B;" cx="43" cy="23" r="3"></circle>	<ellipse style="fill:#677179;" cx="41.5" cy="23" rx="1.5" ry="2.584"></ellipse>	<path style="fill:#4D555B;" d="M38,32v-1c0-2.761,2.239-5,5-5h0c2.761,0,5,2.239,5,5v1"></path>	<path style="fill:#677179;" d="M41.5,26.254C39.477,26.895,38,28.765,38,31v1h7v-1C45,28.765,43.523,26.895,41.5,26.254z"></path>	<rect x="10" y="16" style="fill:#90D4DE;" width="22" height="16"></rect>	<rect x="10" y="16" style="fill:#A6DDE5;" width="19" height="16"></rect>	<path style="fill:#4D555B;" d="M16,32v-6c0-1.105,0.895-2,2-2h6c1.105,0,2,0.895,2,2v6"></path>	<path style="fill:#677179;" d="M21,24h-3c-1.105,0-2,0.895-2,2v6h7v-6C23,24.895,22.105,24,21,24z"></path>	<rect x="10" y="32" style="fill:#677179;" width="44" height="4"></rect>	<rect x="10" y="32" style="fill:#9BAAB5;" width="41" height="4"></rect>	<circle style="fill:#9BAAB5;" cx="46" cy="44" r="4"></circle>	<ellipse style="fill:#CEE2F1;" cx="44.5" cy="44" rx="2.5" ry="3.703"></ellipse>	<circle style="fill:#9BAAB5;" cx="18" cy="44" r="4"></circle>	<ellipse style="fill:#CEE2F1;" cx="16.5" cy="44" rx="2.5" ry="3.703"></ellipse>	<polyline style="fill:#9C989E;" points="24,56 24,50 40,50 40,56  "></polyline>	<rect x="24" y="50" style="fill:#D0CAD3;" width="13" height="6"></rect>	<g>		<path style="fill:#4D555B;" d="M61,22h-2v-5h-5v-2h6c0.552,0,1,0.448,1,1V22z"></path>	</g>	<g>		<rect x="23" y="5" style="fill:#4D555B;" width="2" height="2"></rect>	</g>	<g>		<rect x="27" y="5" style="fill:#4D555B;" width="2" height="2"></rect>	</g>	<g>		<rect x="31" y="5" style="fill:#4D555B;" width="2" height="2"></rect>	</g>	<g>		<rect x="35" y="5" style="fill:#4D555B;" width="2" height="2"></rect>	</g>	<g>		<rect x="39" y="5" style="fill:#4D555B;" width="2" height="2"></rect>	</g>	<g>		<path style="fill:#4D555B;" d="M5,22H3v-6c0-0.552,0.448-1,1-1h6v2H5V22z"></path>	</g></g></svg>