<svg xmlns="http://www.w3.org/2000/svg" xmlns:xlink="http://www.w3.org/1999/xlink" x="0px" y="0px" viewBox="0 0 256 256" style="enable-background:new 0 0 256 256;" xml:space="preserve" width="512" height="512"><style type="text/css">	.st0{display:none;}	.st1{display:inline;}	.st2{fill:none;stroke:#6B1D1D;stroke-width:0.5;stroke-miterlimit:10;}	.st3{fill:#3A312A;}	.st4{fill:#F16C7A;}	.st5{fill:#D7E057;}	.st6{fill:#87796F;}	.st7{fill:#CE4E61;}	.st8{fill-rule:evenodd;clip-rule:evenodd;fill:#D7E057;}	.st9{fill-rule:evenodd;clip-rule:evenodd;fill:#FCE8CB;}	.st10{fill:#B9BC39;}	.st11{fill:#8AC6DD;}	.st12{fill:#FCE8CB;}	.st13{fill:#CCAE8B;}	.st14{fill:#6B5B51;}	.st15{fill:#68A8BC;}	.st16{fill:#F5978A;}	.st17{fill-rule:evenodd;clip-rule:evenodd;fill:#F16C7A;}	.st18{fill-rule:evenodd;clip-rule:evenodd;fill:#8AC6DD;}</style><g id="Layer_1" class="st0">	<g class="st1">		<g>			<line class="st2" x1="0" y1="4.829" x2="256" y2="4.829"></line>			<line class="st2" x1="0" y1="16.56" x2="256" y2="16.56"></line>			<line class="st2" x1="0" y1="28.29" x2="256" y2="28.29"></line>			<line class="st2" x1="0" y1="40.021" x2="256" y2="40.021"></line>			<line class="st2" x1="0" y1="51.751" x2="256" y2="51.751"></line>			<line class="st2" x1="0" y1="63.482" x2="256" y2="63.482"></line>			<line class="st2" x1="0" y1="75.213" x2="256" y2="75.213"></line>			<line class="st2" x1="0" y1="86.943" x2="256" y2="86.943"></line>			<line class="st2" x1="0" y1="98.674" x2="256" y2="98.674"></line>			<line class="st2" x1="0" y1="110.404" x2="256" y2="110.404"></line>			<line class="st2" x1="0" y1="122.135" x2="256" y2="122.135"></line>			<line class="st2" x1="0" y1="133.865" x2="256" y2="133.865"></line>			<line class="st2" x1="0" y1="145.596" x2="256" y2="145.596"></line>			<line class="st2" x1="0" y1="157.326" x2="256" y2="157.326"></line>			<line class="st2" x1="0" y1="169.057" x2="256" y2="169.057"></line>			<line class="st2" x1="0" y1="180.788" x2="256" y2="180.788"></line>			<line class="st2" x1="0" y1="192.518" x2="256" y2="192.518"></line>			<line class="st2" x1="0" y1="204.249" x2="256" y2="204.249"></line>			<line class="st2" x1="0" y1="215.979" x2="256" y2="215.979"></line>			<line class="st2" x1="0" y1="227.71" x2="256" y2="227.71"></line>			<line class="st2" x1="0" y1="239.44" x2="256" y2="239.44"></line>			<line class="st2" x1="0" y1="251.171" x2="256" y2="251.171"></line>		</g>		<g>			<line class="st2" x1="251.171" y1="0" x2="251.171" y2="256"></line>			<line class="st2" x1="239.44" y1="0" x2="239.44" y2="256"></line>			<line class="st2" x1="227.71" y1="0" x2="227.71" y2="256"></line>			<line class="st2" x1="215.979" y1="0" x2="215.979" y2="256"></line>			<line class="st2" x1="204.249" y1="0" x2="204.249" y2="256"></line>			<line class="st2" x1="192.518" y1="0" x2="192.518" y2="256"></line>			<line class="st2" x1="180.787" y1="0" x2="180.787" y2="256"></line>			<line class="st2" x1="169.057" y1="0" x2="169.057" y2="256"></line>			<line class="st2" x1="157.326" y1="0" x2="157.326" y2="256"></line>			<line class="st2" x1="145.596" y1="0" x2="145.596" y2="256"></line>			<line class="st2" x1="133.865" y1="0" x2="133.865" y2="256"></line>			<line class="st2" x1="122.135" y1="0" x2="122.135" y2="256"></line>			<line class="st2" x1="110.404" y1="0" x2="110.404" y2="256"></line>			<line class="st2" x1="98.674" y1="0" x2="98.674" y2="256"></line>			<line class="st2" x1="86.943" y1="0" x2="86.943" y2="256"></line>			<line class="st2" x1="75.212" y1="0" x2="75.212" y2="256"></line>			<line class="st2" x1="63.482" y1="0" x2="63.482" y2="256"></line>			<line class="st2" x1="51.751" y1="0" x2="51.751" y2="256"></line>			<line class="st2" x1="40.021" y1="0" x2="40.021" y2="256"></line>			<line class="st2" x1="28.29" y1="0" x2="28.29" y2="256"></line>			<line class="st2" x1="16.56" y1="0" x2="16.56" y2="256"></line>			<line class="st2" x1="4.829" y1="0" x2="4.829" y2="256"></line>		</g>	</g></g><g id="Layer_2">	<g>		<g>			<g>				<path class="st11" d="M214.314,34.917c-5.92-11.02-17.55-18.5-30.93-18.5H72.334c-13.38,0-25,7.48-30.92,18.5      c-2.66,4.94-4.17,10.59-4.17,16.6v127.27h181.24V51.517C218.484,45.506,216.974,39.856,214.314,34.917z"></path>			</g>		</g>		<g>			<g>				<path class="st3" d="M215.635,34.207c-6.392-11.898-18.75-19.29-32.251-19.29H72.334c-13.496,0-25.85,7.392-32.241,19.289      c-2.845,5.283-4.349,11.269-4.349,17.311v86.466c0,0.828,0.671,1.5,1.5,1.5c0.829,0,1.5-0.672,1.5-1.5V51.517      c0-5.547,1.38-11.041,3.991-15.89c5.868-10.924,17.209-17.71,29.599-17.71h111.05c12.396,0,23.741,6.786,29.609,17.711      c2.611,4.848,3.991,10.342,3.991,15.889v125.771H38.744v-24.103c0-0.828-0.671-1.5-1.5-1.5c-0.829,0-1.5,0.672-1.5,1.5v25.603      c0,0.828,0.671,1.5,1.5,1.5h181.24c0.829,0,1.5-0.672,1.5-1.5V51.517C219.984,45.475,218.48,39.489,215.635,34.207z"></path>			</g>		</g>		<g>			<g>				<path class="st12" d="M214.314,34.917h-172.9c-2.66,4.94-4.17,10.59-4.17,16.6v62.34h181.24v-62.34      C218.484,45.506,216.974,39.856,214.314,34.917z"></path>			</g>		</g>		<g>			<g>				<path class="st3" d="M215.635,34.206c-0.262-0.486-0.769-0.789-1.321-0.789H89.945c-0.829,0-1.5,0.672-1.5,1.5      s0.671,1.5,1.5,1.5h123.459c2.344,4.65,3.58,9.852,3.58,15.1v60.84H38.744v-60.84c0-5.248,1.235-10.449,3.58-15.1h32.932      c0.829,0,1.5-0.672,1.5-1.5s-0.671-1.5-1.5-1.5H41.414c-0.552,0-1.059,0.303-1.321,0.789      c-2.845,5.283-4.349,11.269-4.349,17.311v62.34c0,0.828,0.671,1.5,1.5,1.5h181.24c0.829,0,1.5-0.672,1.5-1.5v-62.34      C219.984,45.475,218.48,39.489,215.635,34.206z"></path>			</g>		</g>		<g>			<g>				<path class="st5" d="M220.638,178.748H33.276c-3.903,0-7.068,3.164-7.068,7.067v15.037c0,3.904,3.164,7.067,7.068,7.067h187.363      c3.903,0,7.067-3.164,7.067-7.067v-15.037C227.706,181.912,224.542,178.748,220.638,178.748z"></path>			</g>		</g>		<g>			<g>				<path class="st3" d="M220.638,177.248H33.275c-4.724,0-8.567,3.844-8.567,8.567v15.037c0,4.724,3.843,8.567,8.567,8.567h102.567      c0.829,0,1.5-0.672,1.5-1.5s-0.671-1.5-1.5-1.5H33.275c-3.07,0-5.567-2.497-5.567-5.567v-15.037c0-3.07,2.498-5.567,5.567-5.567      h187.363c3.07,0,5.567,2.497,5.567,5.567v15.037c0,3.07-2.498,5.567-5.567,5.567h-70.113c-0.829,0-1.5,0.672-1.5,1.5      s0.671,1.5,1.5,1.5h70.113c4.724,0,8.567-3.844,8.567-8.567v-15.037C229.206,181.092,225.362,177.248,220.638,177.248z"></path>			</g>		</g>		<g>			<g>				<path class="st6" d="M48.463,207.92v19.614c0,6.655,5.395,12.05,12.05,12.05h7.177c6.655,0,12.05-5.395,12.05-12.05V207.92      H48.463z"></path>			</g>		</g>		<g>			<g>				<path class="st3" d="M79.74,206.42H48.463c-0.829,0-1.5,0.672-1.5,1.5v19.613c0,7.472,6.079,13.55,13.55,13.55h7.178      c7.471,0,13.55-6.078,13.55-13.55V207.92C81.24,207.092,80.569,206.42,79.74,206.42z M78.24,227.533      c0,5.817-4.732,10.55-10.55,10.55h-7.178c-5.817,0-10.55-4.732-10.55-10.55V209.42H78.24V227.533z"></path>			</g>		</g>		<g>			<g>				<path class="st6" d="M175.978,207.92v19.614c0,6.655,5.395,12.05,12.05,12.05h7.177c6.655,0,12.05-5.395,12.05-12.05V207.92      H175.978z"></path>			</g>		</g>		<g>			<g>				<path class="st3" d="M207.255,206.42h-31.277c-0.829,0-1.5,0.672-1.5,1.5v19.613c0,7.472,6.079,13.55,13.55,13.55h7.177      c7.472,0,13.55-6.078,13.55-13.55V207.92C208.755,207.092,208.084,206.42,207.255,206.42z M205.755,227.533      c0,5.817-4.733,10.55-10.55,10.55h-7.177c-5.817,0-10.55-4.732-10.55-10.55V209.42h28.277V227.533z"></path>			</g>		</g>		<g>			<g>				<path class="st6" d="M154.965,127.024h-54.211c-2.221,0-4.021,1.801-4.021,4.021c0,2.221,1.801,4.021,4.021,4.021h54.211      c2.221,0,4.021-1.801,4.021-4.021C158.986,128.825,157.186,127.024,154.965,127.024z"></path>			</g>		</g>		<g>			<g>				<path class="st3" d="M154.964,125.524h-54.211c-3.044,0-5.521,2.477-5.521,5.521c0,3.044,2.477,5.521,5.521,5.521h54.211      c3.044,0,5.521-2.477,5.521-5.521C160.486,128.001,158.009,125.524,154.964,125.524z M154.964,133.566h-54.211      c-1.39,0-2.521-1.131-2.521-2.521c0-1.391,1.131-2.521,2.521-2.521h54.211c1.39,0,2.521,1.131,2.521,2.521      C157.486,132.436,156.354,133.566,154.964,133.566z"></path>			</g>		</g>		<g>			<g>				<path class="st6" d="M154.965,142.663h-54.211c-2.221,0-4.021,1.801-4.021,4.021s1.801,4.021,4.021,4.021h54.211      c2.221,0,4.021-1.801,4.021-4.021S157.186,142.663,154.965,142.663z"></path>			</g>		</g>		<g>			<g>				<path class="st3" d="M154.964,141.163h-54.211c-3.044,0-5.521,2.477-5.521,5.521c0,3.044,2.477,5.521,5.521,5.521h54.211      c3.044,0,5.521-2.477,5.521-5.521C160.486,143.64,158.009,141.163,154.964,141.163z M154.964,149.205h-54.211      c-1.39,0-2.521-1.131-2.521-2.521c0-1.391,1.131-2.521,2.521-2.521h54.211c1.39,0,2.521,1.131,2.521,2.521      C157.486,148.074,156.354,149.205,154.964,149.205z"></path>			</g>		</g>		<g>			<g>				<path class="st6" d="M154.965,158.301h-54.211c-2.221,0-4.021,1.801-4.021,4.021c0,2.221,1.801,4.021,4.021,4.021h54.211      c2.221,0,4.021-1.801,4.021-4.021C158.986,160.102,157.186,158.301,154.965,158.301z"></path>			</g>		</g>		<g>			<g>				<path class="st3" d="M154.964,156.802h-54.211c-3.044,0-5.521,2.477-5.521,5.521c0,3.045,2.477,5.521,5.521,5.521h54.211      c3.044,0,5.521-2.477,5.521-5.521C160.486,159.278,158.009,156.802,154.964,156.802z M154.964,164.844h-54.211      c-1.39,0-2.521-1.131-2.521-2.521c0-1.39,1.131-2.521,2.521-2.521h54.211c1.39,0,2.521,1.131,2.521,2.521      C157.486,163.713,156.354,164.844,154.964,164.844z"></path>			</g>		</g>		<g>			<g>									<ellipse transform="matrix(0.9871 -0.1602 0.1602 0.9871 -22.6642 12.2175)" class="st5" cx="64.448" cy="146.684" rx="18.045" ry="18.045"></ellipse>			</g>		</g>		<g>			<g>				<path class="st3" d="M64.448,127.14c-10.777,0-19.545,8.768-19.545,19.545c0,10.776,8.768,19.544,19.545,19.544      c10.777,0,19.544-8.768,19.544-19.544C83.992,135.907,75.225,127.14,64.448,127.14z M64.448,163.229      c-9.123,0-16.545-7.422-16.545-16.544c0-9.123,7.422-16.545,16.545-16.545c9.122,0,16.544,7.422,16.544,16.545      C80.992,155.807,73.57,163.229,64.448,163.229z"></path>			</g>		</g>		<g>			<g>									<ellipse transform="matrix(0.9871 -0.1602 0.1602 0.9871 -21.0266 32.5325)" class="st5" cx="191.271" cy="146.684" rx="18.045" ry="18.045"></ellipse>			</g>		</g>		<g>			<g>				<path class="st3" d="M191.271,127.14c-10.777,0-19.544,8.768-19.544,19.545c0,10.776,8.768,19.544,19.544,19.544      c10.777,0,19.545-8.768,19.545-19.544C210.815,135.907,202.048,127.14,191.271,127.14z M191.271,163.229      c-9.123,0-16.544-7.422-16.544-16.544c0-9.123,7.422-16.545,16.544-16.545c9.123,0,16.545,7.422,16.545,16.545      C207.815,155.807,200.394,163.229,191.271,163.229z"></path>			</g>		</g>		<g>			<g>				<path class="st5" d="M232.066,74.159h-13.533v39.698h13.533c3.986,0,7.218-3.232,7.218-7.218V81.377      C239.284,77.391,236.053,74.159,232.066,74.159z"></path>			</g>		</g>		<g>			<g>				<path class="st3" d="M232.066,72.659h-13.533c-0.829,0-1.5,0.672-1.5,1.5v39.698c0,0.828,0.671,1.5,1.5,1.5h13.533      c4.807,0,8.718-3.911,8.718-8.718V81.377C240.784,76.57,236.873,72.659,232.066,72.659z M237.784,106.64      c0,3.152-2.565,5.718-5.718,5.718h-12.033V75.659h12.033c3.153,0,5.718,2.565,5.718,5.718V106.64z"></path>			</g>		</g>		<g>			<g>				<path class="st5" d="M23.652,74.159c-3.986,0-7.218,3.231-7.218,7.218v25.262c0,3.986,3.232,7.218,7.218,7.218h13.534V74.159      H23.652z"></path>			</g>		</g>		<g>			<g>				<path class="st3" d="M37.185,72.659H23.652c-4.807,0-8.718,3.911-8.718,8.718v25.263c0,4.807,3.911,8.718,8.718,8.718h13.533      c0.829,0,1.5-0.672,1.5-1.5V74.159C38.685,73.331,38.014,72.659,37.185,72.659z M35.685,112.357H23.652      c-3.153,0-5.718-2.565-5.718-5.718V81.377c0-3.152,2.565-5.718,5.718-5.718h12.033V112.357z"></path>			</g>		</g>		<g>			<g>				<path class="st3" d="M116.19,104.673H63.034c-0.604,0-1.149,0.362-1.383,0.919l-5.461,12.991      c-0.321,0.764,0.038,1.643,0.801,1.964c0.19,0.08,0.387,0.117,0.581,0.117c0.585,0,1.142-0.345,1.383-0.919l5.075-12.072h52.159      c0.829,0,1.5-0.672,1.5-1.5S117.018,104.673,116.19,104.673z"></path>			</g>		</g>		<g>			<g>				<path class="st3" d="M198.146,104.673H144.99c-0.604,0-1.149,0.362-1.383,0.919l-5.461,12.991      c-0.321,0.764,0.038,1.643,0.801,1.964c0.19,0.08,0.387,0.117,0.581,0.117c0.586,0,1.142-0.345,1.383-0.919l5.075-12.072h52.159      c0.829,0,1.5-0.672,1.5-1.5S198.974,104.673,198.146,104.673z"></path>			</g>		</g>		<g>			<g>				<path class="st6" d="M194.833,16.917c-23.597,0-42.925,18.272-44.612,41.439l-0.037,6c1.399,23.445,20.853,42.027,44.649,42.027      c24.705,0,44.733-20.028,44.733-44.733S219.538,16.917,194.833,16.917z"></path>			</g>		</g>		<g>			<g>				<path class="st3" d="M194.833,15.417c-24.106,0-44.359,18.813-46.112,42.929l-0.037,6c0,0.033,0,0.066,0.002,0.1      c1.454,24.357,21.724,43.438,46.147,43.438c25.493,0,46.233-20.74,46.233-46.233C241.066,36.157,220.326,15.417,194.833,15.417z       M194.833,104.883c-22.821,0-41.765-17.816-43.148-40.568l0.033-5.85c1.635-22.457,20.573-40.048,43.116-40.048      c23.839,0,43.233,19.394,43.233,43.232S218.672,104.883,194.833,104.883z"></path>			</g>		</g>		<g>			<g>				<path class="st5" d="M212.293,28.11l-5.399-2.299c-3.789-1.275-7.842-1.976-12.06-1.976c-20.884,0-37.815,16.93-37.815,37.815      c0,20.884,16.93,37.815,37.815,37.815s37.815-16.93,37.815-37.815C232.648,47.065,224.386,34.418,212.293,28.11z"></path>			</g>		</g>		<g>			<g>				<path class="st3" d="M212.986,26.779c-0.035-0.018-0.07-0.035-0.106-0.05l-5.399-2.298c-0.036-0.016-0.072-0.029-0.109-0.042      c-4.051-1.363-8.27-2.055-12.539-2.055c-21.678,0-39.314,17.637-39.314,39.314s17.636,39.314,39.314,39.314      c21.678,0,39.314-17.637,39.314-39.314C234.147,46.949,226.039,33.588,212.986,26.779z M194.833,97.964      c-20.024,0-36.314-16.291-36.314-36.314s16.291-36.314,36.314-36.314c3.924,0,7.802,0.633,11.527,1.88l5.29,2.251      c12.028,6.299,19.497,18.625,19.497,32.184C231.147,81.673,214.857,97.964,194.833,97.964z"></path>			</g>		</g>		<g>			<g>				<path class="st3" d="M194.833,27.679c-0.406,0-0.735,0.329-0.735,0.735v1.492c0,0.406,0.329,0.735,0.735,0.735      c0.406,0,0.735-0.329,0.735-0.735v-1.492C195.568,28.008,195.239,27.679,194.833,27.679z"></path>			</g>		</g>		<g>			<g>				<path class="st3" d="M194.833,92.658c-0.406,0-0.735,0.329-0.735,0.735v1.492c0,0.406,0.329,0.735,0.735,0.735      c0.406,0,0.735-0.329,0.735-0.735v-1.492C195.568,92.987,195.239,92.658,194.833,92.658z"></path>			</g>		</g>		<g>			<g>				<path class="st3" d="M228.069,60.915h-1.492c-0.406,0-0.735,0.329-0.735,0.735s0.329,0.735,0.735,0.735h1.492      c0.406,0,0.735-0.329,0.735-0.735S228.475,60.915,228.069,60.915z"></path>			</g>		</g>		<g>			<g>				<path class="st3" d="M163.09,60.915h-1.493c-0.406,0-0.735,0.329-0.735,0.735s0.329,0.735,0.735,0.735h1.493      c0.406,0,0.735-0.329,0.735-0.735S163.495,60.915,163.09,60.915z"></path>			</g>		</g>		<g>			<g>				<path class="st3" d="M218.854,37.629c-0.287-0.287-0.752-0.287-1.039,0l-1.056,1.055c-0.287,0.287-0.287,0.752,0,1.039      c0.287,0.287,0.752,0.287,1.039,0l1.055-1.055C219.141,38.381,219.141,37.916,218.854,37.629z"></path>			</g>		</g>		<g>			<g>				<path class="st3" d="M172.907,83.576c-0.287-0.287-0.752-0.287-1.039,0l-1.055,1.055c-0.287,0.287-0.287,0.752,0,1.039      c0.287,0.287,0.752,0.287,1.039,0l1.055-1.055C173.193,84.328,173.193,83.863,172.907,83.576z"></path>			</g>		</g>		<g>			<g>				<path class="st3" d="M218.854,84.631l-1.055-1.055c-0.287-0.287-0.752-0.287-1.039,0c-0.287,0.287-0.287,0.752,0,1.039      l1.056,1.055c0.287,0.287,0.752,0.287,1.039,0C219.141,85.384,219.141,84.918,218.854,84.631z"></path>			</g>		</g>		<g>			<g>				<path class="st3" d="M172.907,38.684l-1.055-1.055c-0.287-0.287-0.752-0.287-1.039,0c-0.287,0.287-0.287,0.752,0,1.039      l1.055,1.055c0.287,0.287,0.752,0.287,1.039,0C173.193,39.437,173.193,38.971,172.907,38.684z"></path>			</g>		</g>		<g>			<g>				<path class="st3" d="M218.853,84.63l-1.053-1.053c-0.287-0.288-0.752-0.288-1.039,0c-0.288,0.288-0.288,0.752,0,1.04      l1.052,1.053c0.288,0.287,0.752,0.287,1.039,0C219.141,85.382,219.141,84.918,218.853,84.63z"></path>			</g>		</g>		<g>			<g>				<path class="st3" d="M217.699,42.272c-0.529-0.638-1.475-0.727-2.112-0.196l-21.202,17.604L180.09,46.017      c-0.6-0.574-1.548-0.552-2.121,0.048c-0.572,0.599-0.551,1.548,0.048,2.12l15.262,14.588c0.289,0.276,0.663,0.416,1.037,0.416      c0.339,0,0.68-0.114,0.958-0.346l22.23-18.458C218.141,43.855,218.228,42.909,217.699,42.272z"></path>			</g>		</g>		<g>			<g>				<path class="st17" d="M195.97,58.719c-1.454-1.062-3.492-0.743-4.551,0.711c-1.059,1.454-0.742,3.49,0.712,4.551      c1.453,1.061,3.492,0.741,4.55-0.711C197.742,61.816,197.424,59.779,195.97,58.719z"></path>			</g>		</g>		<g>			<g>				<path class="st3" d="M198.75,60.614c-0.196-1.256-0.87-2.359-1.896-3.107c-1.027-0.749-2.284-1.05-3.54-0.858      c-1.256,0.196-2.36,0.87-3.108,1.897c0,0.001,0,0.001,0,0.001c-1.544,2.119-1.077,5.101,1.04,6.646      c0.823,0.601,1.794,0.915,2.793,0.915c0.247,0,0.497-0.02,0.747-0.059c1.255-0.197,2.359-0.87,3.106-1.896      C198.642,63.128,198.947,61.87,198.75,60.614z M195.468,62.386c-0.276,0.379-0.683,0.628-1.146,0.7      c-0.466,0.073-0.928-0.04-1.307-0.316c-0.782-0.57-0.955-1.673-0.384-2.456c0.276-0.38,0.684-0.628,1.147-0.7      c0.461-0.073,0.927,0.04,1.309,0.317c0.379,0.276,0.628,0.684,0.7,1.146C195.859,61.541,195.746,62.006,195.468,62.386z"></path>			</g>		</g>		<g>			<g>				<path class="st13" d="M202.654,107.217v5.14h14.33v-10.14C212.594,104.626,207.764,106.346,202.654,107.217z"></path>			</g>		</g>		<g>			<g>				<path class="st15" d="M202.484,115.356v15.33c5.03,3.54,8.33,9.39,8.33,16c0,6.6-3.3,12.45-8.33,15.99v14.57h14.5v-61.89      H202.484z"></path>			</g>		</g>		<g>			<g>				<path class="st15" d="M165.404,17.917c-8.6,2.96-16.09,8.41-21.6,15.5h14.5c5.51-7.09,13-12.54,21.6-15.5H165.404z"></path>			</g>		</g>		<g>			<g>				<path class="st13" d="M148.684,64.447v-0.1l0.04-6c0.58-8.08,3.25-15.55,7.44-21.93h-14.5c-4.19,6.38-6.86,13.85-7.44,21.93      l-0.04,6v0.1c1.1,18.42,12.96,33.81,29.24,40.23h14.5C161.644,98.256,149.784,82.867,148.684,64.447z"></path>			</g>		</g>		<g>			<g>				<path class="st10" d="M220.634,180.247h-14.5c3.07,0,5.57,2.5,5.57,5.57v15.04c0,3.07-2.5,5.56-5.57,5.56h14.5      c3.07,0,5.57-2.49,5.57-5.56v-15.04C226.204,182.747,223.704,180.247,220.634,180.247z"></path>			</g>		</g>	</g></g></svg>